<svg xmlns="http://www.w3.org/2000/svg" width="1440" height="1440" fill="none"><mask id="b" width="1440" height="1440" x="0" y="0" maskUnits="userSpaceOnUse" style="mask-type:alpha"><path fill="url(#a)" d="M0 0h1440v1440H0z"/></mask><g mask="url(#b)"><mask id="c" fill="#fff"><path d="M0 0h160v160H0V0Z"/></mask><path fill="#fff" d="M0 0h160v160H0V0Z"/><path fill="#2F2B43" fill-opacity=".2" d="M160 160v1h1v-1h-1ZM159 0v160h2V0h-2Zm1 159H0v2h160v-2Z" mask="url(#c)"/><mask id="d" fill="#fff"><path d="M160 0h160v160H160V0Z"/></mask><path fill="#fff" d="M160 0h160v160H160V0Z"/><path fill="#2F2B43" fill-opacity=".2" d="M320 160v1h1v-1h-1ZM319 0v160h2V0h-2Zm1 159H160v2h160v-2Z" mask="url(#d)"/><mask id="e" fill="#fff"><path d="M320 0h160v160H320V0Z"/></mask><path fill="#fff" d="M320 0h160v160H320V0Z"/><path fill="#2F2B43" fill-opacity=".2" d="M480 160v1h1v-1h-1ZM479 0v160h2V0h-2Zm1 159H320v2h160v-2Z" mask="url(#e)"/><mask id="f" fill="#fff"><path d="M480 0h160v160H480V0Z"/></mask><path fill="#fff" d="M480 0h160v160H480V0Z"/><path fill="#2F2B43" fill-opacity=".2" d="M640 160v1h1v-1h-1ZM639 0v160h2V0h-2Zm1 159H480v2h160v-2Z" mask="url(#f)"/><mask id="g" fill="#fff"><path d="M640 0h160v160H640V0Z"/></mask><path fill="#fff" d="M640 0h160v160H640V0Z"/><path fill="#2F2B43" fill-opacity=".2" d="M800 160v1h1v-1h-1ZM799 0v160h2V0h-2Zm1 159H640v2h160v-2Z" mask="url(#g)"/><mask id="h" fill="#fff"><path d="M800 0h160v160H800V0Z"/></mask><path fill="#F6F6F8" d="M800 0h160v160H800V0Z"/><path fill="#2F2B43" fill-opacity=".2" d="M960 160v1h1v-1h-1ZM959 0v160h2V0h-2Zm1 159H800v2h160v-2Z" mask="url(#h)"/><mask id="i" fill="#fff"><path d="M960 0h160v160H960V0Z"/></mask><path fill="#fff" d="M960 0h160v160H960V0Z"/><path fill="#2F2B43" fill-opacity=".2" d="M1120 160v1h1v-1h-1Zm-1-160v160h2V0h-2Zm1 159H960v2h160v-2Z" mask="url(#i)"/><mask id="j" fill="#fff"><path d="M1120 0h160v160h-160V0Z"/></mask><path fill="#fff" d="M1120 0h160v160h-160V0Z"/><path fill="#2F2B43" fill-opacity=".2" d="M1280 160v1h1v-1h-1Zm-1-160v160h2V0h-2Zm1 159h-160v2h160v-2Z" mask="url(#j)"/><mask id="k" fill="#fff"><path d="M1280 0h160v160h-160V0Z"/></mask><path fill="#fff" d="M1280 0h160v160h-160V0Z"/><path fill="#2F2B43" fill-opacity=".2" d="M1440 159h-160v2h160v-2Z" mask="url(#k)"/><mask id="l" fill="#fff"><path d="M0 160h160v160H0V160Z"/></mask><path fill="#fff" d="M0 160h160v160H0V160Z"/><path fill="#2F2B43" fill-opacity=".2" d="M160 320v1h1v-1h-1Zm-1-160v160h2V160h-2Zm1 159H0v2h160v-2Z" mask="url(#l)"/><mask id="m" fill="#fff"><path d="M160 160h160v160H160V160Z"/></mask><path fill="#fff" d="M160 160h160v160H160V160Z"/><path fill="#2F2B43" fill-opacity=".2" d="M320 320v1h1v-1h-1Zm-1-160v160h2V160h-2Zm1 159H160v2h160v-2Z" mask="url(#m)"/><mask id="n" fill="#fff"><path d="M320 160h160v160H320V160Z"/></mask><path fill="#fff" d="M320 160h160v160H320V160Z"/><path fill="#2F2B43" fill-opacity=".2" d="M480 320v1h1v-1h-1Zm-1-160v160h2V160h-2Zm1 159H320v2h160v-2Z" mask="url(#n)"/><mask id="o" fill="#fff"><path d="M480 160h160v160H480V160Z"/></mask><path fill="#fff" d="M480 160h160v160H480V160Z"/><path fill="#2F2B43" fill-opacity=".2" d="M640 320v1h1v-1h-1Zm-1-160v160h2V160h-2Zm1 159H480v2h160v-2Z" mask="url(#o)"/><mask id="p" fill="#fff"><path d="M640 160h160v160H640V160Z"/></mask><path fill="#fff" d="M640 160h160v160H640V160Z"/><path fill="#2F2B43" fill-opacity=".2" d="M800 320v1h1v-1h-1Zm-1-160v160h2V160h-2Zm1 159H640v2h160v-2Z" mask="url(#p)"/><mask id="q" fill="#fff"><path d="M800 160h160v160H800V160Z"/></mask><path fill="#fff" d="M800 160h160v160H800V160Z"/><path fill="#2F2B43" fill-opacity=".2" d="M960 320v1h1v-1h-1Zm-1-160v160h2V160h-2Zm1 159H800v2h160v-2Z" mask="url(#q)"/><mask id="r" fill="#fff"><path d="M960 160h160v160H960V160Z"/></mask><path fill="#fff" d="M960 160h160v160H960V160Z"/><path fill="#2F2B43" fill-opacity=".2" d="M1120 320v1h1v-1h-1Zm-1-160v160h2V160h-2Zm1 159H960v2h160v-2Z" mask="url(#r)"/><mask id="s" fill="#fff"><path d="M1120 160h160v160h-160V160Z"/></mask><path fill="#fff" d="M1120 160h160v160h-160V160Z"/><path fill="#2F2B43" fill-opacity=".2" d="M1280 320v1h1v-1h-1Zm-1-160v160h2V160h-2Zm1 159h-160v2h160v-2Z" mask="url(#s)"/><mask id="t" fill="#fff"><path d="M1280 160h160v160h-160V160Z"/></mask><path fill="#fff" d="M1280 160h160v160h-160V160Z"/><path fill="#2F2B43" fill-opacity=".2" d="M1440 319h-160v2h160v-2Z" mask="url(#t)"/><mask id="u" fill="#fff"><path d="M0 320h160v160H0V320Z"/></mask><path fill="#fff" d="M0 320h160v160H0V320Z"/><path fill="#2F2B43" fill-opacity=".2" d="M160 480v1h1v-1h-1Zm-1-160v160h2V320h-2Zm1 159H0v2h160v-2Z" mask="url(#u)"/><mask id="v" fill="#fff"><path d="M160 320h160v160H160V320Z"/></mask><path fill="#fff" d="M160 320h160v160H160V320Z"/><path fill="#2F2B43" fill-opacity=".2" d="M320 480v1h1v-1h-1Zm-1-160v160h2V320h-2Zm1 159H160v2h160v-2Z" mask="url(#v)"/><mask id="w" fill="#fff"><path d="M320 320h160v160H320V320Z"/></mask><path fill="#F6F6F8" d="M320 320h160v160H320V320Z"/><path fill="#2F2B43" fill-opacity=".2" d="M480 480v1h1v-1h-1Zm-1-160v160h2V320h-2Zm1 159H320v2h160v-2Z" mask="url(#w)"/><mask id="x" fill="#fff"><path d="M480 320h160v160H480V320Z"/></mask><path fill="#fff" d="M480 320h160v160H480V320Z"/><path fill="#2F2B43" fill-opacity=".2" d="M640 480v1h1v-1h-1Zm-1-160v160h2V320h-2Zm1 159H480v2h160v-2Z" mask="url(#x)"/><mask id="y" fill="#fff"><path d="M640 320h160v160H640V320Z"/></mask><path fill="#fff" d="M640 320h160v160H640V320Z"/><path fill="#2F2B43" fill-opacity=".2" d="M800 480v1h1v-1h-1Zm-1-160v160h2V320h-2Zm1 159H640v2h160v-2Z" mask="url(#y)"/><mask id="z" fill="#fff"><path d="M800 320h160v160H800V320Z"/></mask><path fill="#fff" d="M800 320h160v160H800V320Z"/><path fill="#2F2B43" fill-opacity=".2" d="M960 480v1h1v-1h-1Zm-1-160v160h2V320h-2Zm1 159H800v2h160v-2Z" mask="url(#z)"/><mask id="A" fill="#fff"><path d="M960 320h160v160H960V320Z"/></mask><path fill="#fff" d="M960 320h160v160H960V320Z"/><path fill="#2F2B43" fill-opacity=".2" d="M1120 480v1h1v-1h-1Zm-1-160v160h2V320h-2Zm1 159H960v2h160v-2Z" mask="url(#A)"/><mask id="B" fill="#fff"><path d="M1120 320h160v160h-160V320Z"/></mask><path fill="#fff" d="M1120 320h160v160h-160V320Z"/><path fill="#2F2B43" fill-opacity=".2" d="M1280 480v1h1v-1h-1Zm-1-160v160h2V320h-2Zm1 159h-160v2h160v-2Z" mask="url(#B)"/><mask id="C" fill="#fff"><path d="M1280 320h160v160h-160V320Z"/></mask><path fill="#fff" d="M1280 320h160v160h-160V320Z"/><path fill="#2F2B43" fill-opacity=".2" d="M1440 479h-160v2h160v-2Z" mask="url(#C)"/><mask id="D" fill="#fff"><path d="M0 480h160v160H0V480Z"/></mask><path fill="#fff" d="M0 480h160v160H0V480Z"/><path fill="#2F2B43" fill-opacity=".2" d="M160 640v1h1v-1h-1Zm-1-160v160h2V480h-2Zm1 159H0v2h160v-2Z" mask="url(#D)"/><mask id="E" fill="#fff"><path d="M160 480h160v160H160V480Z"/></mask><path fill="#fff" d="M160 480h160v160H160V480Z"/><path fill="#2F2B43" fill-opacity=".2" d="M320 640v1h1v-1h-1Zm-1-160v160h2V480h-2Zm1 159H160v2h160v-2Z" mask="url(#E)"/><mask id="F" fill="#fff"><path d="M320 480h160v160H320V480Z"/></mask><path fill="#fff" d="M320 480h160v160H320V480Z"/><path fill="#2F2B43" fill-opacity=".2" d="M480 640v1h1v-1h-1Zm-1-160v160h2V480h-2Zm1 159H320v2h160v-2Z" mask="url(#F)"/><mask id="G" fill="#fff"><path d="M480 480h160v160H480V480Z"/></mask><path fill="#fff" d="M480 480h160v160H480V480Z"/><path fill="#2F2B43" fill-opacity=".2" d="M640 640v1h1v-1h-1Zm-1-160v160h2V480h-2Zm1 159H480v2h160v-2Z" mask="url(#G)"/><mask id="H" fill="#fff"><path d="M640 480h160v160H640V480Z"/></mask><path fill="#fff" d="M640 480h160v160H640V480Z"/><path fill="#2F2B43" fill-opacity=".2" d="M800 640v1h1v-1h-1Zm-1-160v160h2V480h-2Zm1 159H640v2h160v-2Z" mask="url(#H)"/><mask id="I" fill="#fff"><path d="M800 480h160v160H800V480Z"/></mask><path fill="#fff" d="M800 480h160v160H800V480Z"/><path fill="#2F2B43" fill-opacity=".2" d="M960 640v1h1v-1h-1Zm-1-160v160h2V480h-2Zm1 159H800v2h160v-2Z" mask="url(#I)"/><mask id="J" fill="#fff"><path d="M960 480h160v160H960V480Z"/></mask><path fill="#F6F6F8" d="M960 480h160v160H960V480Z"/><path fill="#2F2B43" fill-opacity=".2" d="M1120 640v1h1v-1h-1Zm-1-160v160h2V480h-2Zm1 159H960v2h160v-2Z" mask="url(#J)"/><mask id="K" fill="#fff"><path d="M1120 480h160v160h-160V480Z"/></mask><path fill="#fff" d="M1120 480h160v160h-160V480Z"/><path fill="#2F2B43" fill-opacity=".2" d="M1280 640v1h1v-1h-1Zm-1-160v160h2V480h-2Zm1 159h-160v2h160v-2Z" mask="url(#K)"/><mask id="L" fill="#fff"><path d="M1280 480h160v160h-160V480Z"/></mask><path fill="#fff" d="M1280 480h160v160h-160V480Z"/><path fill="#2F2B43" fill-opacity=".2" d="M1440 639h-160v2h160v-2Z" mask="url(#L)"/><mask id="M" fill="#fff"><path d="M0 640h160v160H0V640Z"/></mask><path fill="#fff" d="M0 640h160v160H0V640Z"/><path fill="#2F2B43" fill-opacity=".2" d="M160 800v1h1v-1h-1Zm-1-160v160h2V640h-2Zm1 159H0v2h160v-2Z" mask="url(#M)"/><mask id="N" fill="#fff"><path d="M160 640h160v160H160V640Z"/></mask><path fill="#fff" d="M160 640h160v160H160V640Z"/><path fill="#2F2B43" fill-opacity=".2" d="M320 800v1h1v-1h-1Zm-1-160v160h2V640h-2Zm1 159H160v2h160v-2Z" mask="url(#N)"/><mask id="O" fill="#fff"><path d="M320 640h160v160H320V640Z"/></mask><path fill="#fff" d="M320 640h160v160H320V640Z"/><path fill="#2F2B43" fill-opacity=".2" d="M480 800v1h1v-1h-1Zm-1-160v160h2V640h-2Zm1 159H320v2h160v-2Z" mask="url(#O)"/><mask id="P" fill="#fff"><path d="M480 640h160v160H480V640Z"/></mask><path fill="#fff" d="M480 640h160v160H480V640Z"/><path fill="#2F2B43" fill-opacity=".2" d="M640 800v1h1v-1h-1Zm-1-160v160h2V640h-2Zm1 159H480v2h160v-2Z" mask="url(#P)"/><mask id="Q" fill="#fff"><path d="M640 640h160v160H640V640Z"/></mask><path fill="#fff" d="M640 640h160v160H640V640Z"/><path fill="#2F2B43" fill-opacity=".2" d="M800 800v1h1v-1h-1Zm-1-160v160h2V640h-2Zm1 159H640v2h160v-2Z" mask="url(#Q)"/><mask id="R" fill="#fff"><path d="M800 640h160v160H800V640Z"/></mask><path fill="#fff" d="M800 640h160v160H800V640Z"/><path fill="#2F2B43" fill-opacity=".2" d="M960 800v1h1v-1h-1Zm-1-160v160h2V640h-2Zm1 159H800v2h160v-2Z" mask="url(#R)"/><mask id="S" fill="#fff"><path d="M960 640h160v160H960V640Z"/></mask><path fill="#fff" d="M960 640h160v160H960V640Z"/><path fill="#2F2B43" fill-opacity=".2" d="M1120 800v1h1v-1h-1Zm-1-160v160h2V640h-2Zm1 159H960v2h160v-2Z" mask="url(#S)"/><mask id="T" fill="#fff"><path d="M1120 640h160v160h-160V640Z"/></mask><path fill="#F6F6F8" d="M1120 640h160v160h-160V640Z"/><path fill="#2F2B43" fill-opacity=".2" d="M1280 800v1h1v-1h-1Zm-1-160v160h2V640h-2Zm1 159h-160v2h160v-2Z" mask="url(#T)"/><mask id="U" fill="#fff"><path d="M1280 640h160v160h-160V640Z"/></mask><path fill="#fff" d="M1280 640h160v160h-160V640Z"/><path fill="#2F2B43" fill-opacity=".2" d="M1440 799h-160v2h160v-2Z" mask="url(#U)"/><mask id="V" fill="#fff"><path d="M0 800h160v160H0V800Z"/></mask><path fill="#fff" d="M0 800h160v160H0V800Z"/><path fill="#2F2B43" fill-opacity=".2" d="M160 960v1h1v-1h-1Zm-1-160v160h2V800h-2Zm1 159H0v2h160v-2Z" mask="url(#V)"/><mask id="W" fill="#fff"><path d="M160 800h160v160H160V800Z"/></mask><path fill="#fff" d="M160 800h160v160H160V800Z"/><path fill="#2F2B43" fill-opacity=".2" d="M320 960v1h1v-1h-1Zm-1-160v160h2V800h-2Zm1 159H160v2h160v-2Z" mask="url(#W)"/><mask id="X" fill="#fff"><path d="M320 800h160v160H320V800Z"/></mask><path fill="#fff" d="M320 800h160v160H320V800Z"/><path fill="#2F2B43" fill-opacity=".2" d="M480 960v1h1v-1h-1Zm-1-160v160h2V800h-2Zm1 159H320v2h160v-2Z" mask="url(#X)"/><mask id="Y" fill="#fff"><path d="M480 800h160v160H480V800Z"/></mask><path fill="#fff" d="M480 800h160v160H480V800Z"/><path fill="#2F2B43" fill-opacity=".2" d="M640 960v1h1v-1h-1Zm-1-160v160h2V800h-2Zm1 159H480v2h160v-2Z" mask="url(#Y)"/><mask id="Z" fill="#fff"><path d="M640 800h160v160H640V800Z"/></mask><path fill="#fff" d="M640 800h160v160H640V800Z"/><path fill="#2F2B43" fill-opacity=".2" d="M800 960v1h1v-1h-1Zm-1-160v160h2V800h-2Zm1 159H640v2h160v-2Z" mask="url(#Z)"/><mask id="aa" fill="#fff"><path d="M800 800h160v160H800V800Z"/></mask><path fill="#fff" d="M800 800h160v160H800V800Z"/><path fill="#2F2B43" fill-opacity=".2" d="M960 960v1h1v-1h-1Zm-1-160v160h2V800h-2Zm1 159H800v2h160v-2Z" mask="url(#aa)"/><mask id="ab" fill="#fff"><path d="M960 800h160v160H960V800Z"/></mask><path fill="#fff" d="M960 800h160v160H960V800Z"/><path fill="#2F2B43" fill-opacity=".2" d="M1120 960v1h1v-1h-1Zm-1-160v160h2V800h-2Zm1 159H960v2h160v-2Z" mask="url(#ab)"/><mask id="ac" fill="#fff"><path d="M1120 800h160v160h-160V800Z"/></mask><path fill="#fff" d="M1120 800h160v160h-160V800Z"/><path fill="#2F2B43" fill-opacity=".2" d="M1280 960v1h1v-1h-1Zm-1-160v160h2V800h-2Zm1 159h-160v2h160v-2Z" mask="url(#ac)"/><mask id="ad" fill="#fff"><path d="M1280 800h160v160h-160V800Z"/></mask><path fill="#fff" d="M1280 800h160v160h-160V800Z"/><path fill="#2F2B43" fill-opacity=".2" d="M1440 959h-160v2h160v-2Z" mask="url(#ad)"/><mask id="ae" fill="#fff"><path d="M0 960h160v160H0V960Z"/></mask><path fill="#fff" d="M0 960h160v160H0V960Z"/><path fill="#2F2B43" fill-opacity=".2" d="M160 1120v1h1v-1h-1Zm-1-160v160h2V960h-2Zm1 159H0v2h160v-2Z" mask="url(#ae)"/><mask id="af" fill="#fff"><path d="M160 960h160v160H160V960Z"/></mask><path fill="#fff" d="M160 960h160v160H160V960Z"/><path fill="#2F2B43" fill-opacity=".2" d="M320 1120v1h1v-1h-1Zm-1-160v160h2V960h-2Zm1 159H160v2h160v-2Z" mask="url(#af)"/><mask id="ag" fill="#fff"><path d="M320 960h160v160H320V960Z"/></mask><path fill="#fff" d="M320 960h160v160H320V960Z"/><path fill="#2F2B43" fill-opacity=".2" d="M480 1120v1h1v-1h-1Zm-1-160v160h2V960h-2Zm1 159H320v2h160v-2Z" mask="url(#ag)"/><mask id="ah" fill="#fff"><path d="M480 960h160v160H480V960Z"/></mask><path fill="#F6F6F8" d="M480 960h160v160H480V960Z"/><path fill="#2F2B43" fill-opacity=".2" d="M640 1120v1h1v-1h-1Zm-1-160v160h2V960h-2Zm1 159H480v2h160v-2Z" mask="url(#ah)"/><mask id="ai" fill="#fff"><path d="M640 960h160v160H640V960Z"/></mask><path fill="#fff" d="M640 960h160v160H640V960Z"/><path fill="#2F2B43" fill-opacity=".2" d="M800 1120v1h1v-1h-1Zm-1-160v160h2V960h-2Zm1 159H640v2h160v-2Z" mask="url(#ai)"/><mask id="aj" fill="#fff"><path d="M800 960h160v160H800V960Z"/></mask><path fill="#fff" d="M800 960h160v160H800V960Z"/><path fill="#2F2B43" fill-opacity=".2" d="M960 1120v1h1v-1h-1Zm-1-160v160h2V960h-2Zm1 159H800v2h160v-2Z" mask="url(#aj)"/><mask id="ak" fill="#fff"><path d="M960 960h160v160H960V960Z"/></mask><path fill="#fff" d="M960 960h160v160H960V960Z"/><path fill="#2F2B43" fill-opacity=".2" d="M1120 1120v1h1v-1h-1Zm-1-160v160h2V960h-2Zm1 159H960v2h160v-2Z" mask="url(#ak)"/><mask id="al" fill="#fff"><path d="M1120 960h160v160h-160V960Z"/></mask><path fill="#fff" d="M1120 960h160v160h-160V960Z"/><path fill="#2F2B43" fill-opacity=".2" d="M1280 1120v1h1v-1h-1Zm-1-160v160h2V960h-2Zm1 159h-160v2h160v-2Z" mask="url(#al)"/><mask id="am" fill="#fff"><path d="M1280 960h160v160h-160V960Z"/></mask><path fill="#fff" d="M1280 960h160v160h-160V960Z"/><path fill="#2F2B43" fill-opacity=".2" d="M1440 1119h-160v2h160v-2Z" mask="url(#am)"/><mask id="an" fill="#fff"><path d="M0 1120h160v160H0v-160Z"/></mask><path fill="#fff" d="M0 1120h160v160H0v-160Z"/><path fill="#2F2B43" fill-opacity=".2" d="M160 1280v1h1v-1h-1Zm-1-160v160h2v-160h-2Zm1 159H0v2h160v-2Z" mask="url(#an)"/><mask id="ao" fill="#fff"><path d="M160 1120h160v160H160v-160Z"/></mask><path fill="#fff" d="M160 1120h160v160H160v-160Z"/><path fill="#2F2B43" fill-opacity=".2" d="M320 1280v1h1v-1h-1Zm-1-160v160h2v-160h-2Zm1 159H160v2h160v-2Z" mask="url(#ao)"/><mask id="ap" fill="#fff"><path d="M320 1120h160v160H320v-160Z"/></mask><path fill="#fff" d="M320 1120h160v160H320v-160Z"/><path fill="#2F2B43" fill-opacity=".2" d="M480 1280v1h1v-1h-1Zm-1-160v160h2v-160h-2Zm1 159H320v2h160v-2Z" mask="url(#ap)"/><mask id="aq" fill="#fff"><path d="M480 1120h160v160H480v-160Z"/></mask><path fill="#fff" d="M480 1120h160v160H480v-160Z"/><path fill="#2F2B43" fill-opacity=".2" d="M640 1280v1h1v-1h-1Zm-1-160v160h2v-160h-2Zm1 159H480v2h160v-2Z" mask="url(#aq)"/><mask id="ar" fill="#fff"><path d="M640 1120h160v160H640v-160Z"/></mask><path fill="#fff" d="M640 1120h160v160H640v-160Z"/><path fill="#2F2B43" fill-opacity=".2" d="M800 1280v1h1v-1h-1Zm-1-160v160h2v-160h-2Zm1 159H640v2h160v-2Z" mask="url(#ar)"/><mask id="as" fill="#fff"><path d="M800 1120h160v160H800v-160Z"/></mask><path fill="#fff" d="M800 1120h160v160H800v-160Z"/><path fill="#2F2B43" fill-opacity=".2" d="M960 1280v1h1v-1h-1Zm-1-160v160h2v-160h-2Zm1 159H800v2h160v-2Z" mask="url(#as)"/><mask id="at" fill="#fff"><path d="M960 1120h160v160H960v-160Z"/></mask><path fill="#fff" d="M960 1120h160v160H960v-160Z"/><path fill="#2F2B43" fill-opacity=".2" d="M1120 1280v1h1v-1h-1Zm-1-160v160h2v-160h-2Zm1 159H960v2h160v-2Z" mask="url(#at)"/><mask id="au" fill="#fff"><path d="M1120 1120h160v160h-160v-160Z"/></mask><path fill="#fff" d="M1120 1120h160v160h-160v-160Z"/><path fill="#2F2B43" fill-opacity=".2" d="M1280 1280v1h1v-1h-1Zm-1-160v160h2v-160h-2Zm1 159h-160v2h160v-2Z" mask="url(#au)"/><mask id="av" fill="#fff"><path d="M1280 1120h160v160h-160v-160Z"/></mask><path fill="#fff" d="M1280 1120h160v160h-160v-160Z"/><path fill="#2F2B43" fill-opacity=".2" d="M1440 1279h-160v2h160v-2Z" mask="url(#av)"/><mask id="aw" fill="#fff"><path d="M0 1280h160v160H0v-160Z"/></mask><path fill="#fff" d="M0 1280h160v160H0v-160Z"/><path fill="#2F2B43" fill-opacity=".2" d="M159 1280v160h2v-160h-2Z" mask="url(#aw)"/><mask id="ax" fill="#fff"><path d="M160 1280h160v160H160v-160Z"/></mask><path fill="#fff" d="M160 1280h160v160H160v-160Z"/><path fill="#2F2B43" fill-opacity=".2" d="M319 1280v160h2v-160h-2Z" mask="url(#ax)"/><mask id="ay" fill="#fff"><path d="M320 1280h160v160H320v-160Z"/></mask><path fill="#fff" d="M320 1280h160v160H320v-160Z"/><path fill="#2F2B43" fill-opacity=".2" d="M479 1280v160h2v-160h-2Z" mask="url(#ay)"/><mask id="az" fill="#fff"><path d="M480 1280h160v160H480v-160Z"/></mask><path fill="#fff" d="M480 1280h160v160H480v-160Z"/><path fill="#2F2B43" fill-opacity=".2" d="M639 1280v160h2v-160h-2Z" mask="url(#az)"/><mask id="aA" fill="#fff"><path d="M640 1280h160v160H640v-160Z"/></mask><path fill="#fff" d="M640 1280h160v160H640v-160Z"/><path fill="#2F2B43" fill-opacity=".2" d="M799 1280v160h2v-160h-2Z" mask="url(#aA)"/><mask id="aB" fill="#fff"><path d="M800 1280h160v160H800v-160Z"/></mask><path fill="#fff" d="M800 1280h160v160H800v-160Z"/><path fill="#2F2B43" fill-opacity=".2" d="M959 1280v160h2v-160h-2Z" mask="url(#aB)"/><mask id="aC" fill="#fff"><path d="M960 1280h160v160H960v-160Z"/></mask><path fill="#fff" d="M960 1280h160v160H960v-160Z"/><path fill="#2F2B43" fill-opacity=".2" d="M1119 1280v160h2v-160h-2Z" mask="url(#aC)"/><mask id="aD" fill="#fff"><path d="M1120 1280h160v160h-160v-160Z"/></mask><path fill="#fff" d="M1120 1280h160v160h-160v-160Z"/><path fill="#2F2B43" fill-opacity=".2" d="M1279 1280v160h2v-160h-2Z" mask="url(#aD)"/><path fill="#fff" d="M1280 1280h160v160h-160v-160Z"/></g><defs><radialGradient id="a" cx="0" cy="0" r="1" gradientTransform="matrix(0 1170.5 -689.488 0 720 0)" gradientUnits="userSpaceOnUse"><stop stop-color="#fff"/><stop offset=".991" stop-color="#fff" stop-opacity="0"/></radialGradient></defs></svg>