<svg xmlns="http://www.w3.org/2000/svg" width="990" height="920" fill="none" viewBox="0 0 990 920"><g clip-path="url(#clip0_116_12875)"><mask id="mask0_116_12875" width="668" height="691" x="865" y="74" maskUnits="userSpaceOnUse" style="mask-type:alpha"><path fill="url(#paint0_linear_116_12875)" d="M865 74h668v691H865z"/></mask><g fill="#000" mask="url(#mask0_116_12875)" opacity=".25"><circle cx="897.234" cy="102.234" r="2"/><circle cx="917.234" cy="102.234" r="2"/><circle cx="937.234" cy="102.234" r="2"/><circle cx="957.234" cy="102.234" r="2"/><circle cx="977.234" cy="102.234" r="2"/><circle cx="897.234" cy="122.234" r="2"/><circle cx="917.234" cy="122.234" r="2"/><circle cx="937.234" cy="122.234" r="2"/><circle cx="957.234" cy="122.234" r="2"/><circle cx="977.234" cy="122.234" r="2"/><circle cx="897.234" cy="142.234" r="2"/><circle cx="917.234" cy="142.234" r="2"/><circle cx="937.234" cy="142.234" r="2"/><circle cx="957.234" cy="142.234" r="2"/><circle cx="977.234" cy="142.234" r="2"/><circle cx="897.234" cy="162.234" r="2"/><circle cx="917.234" cy="162.234" r="2"/><circle cx="937.234" cy="162.234" r="2"/><circle cx="957.234" cy="162.234" r="2"/><circle cx="977.234" cy="162.234" r="2"/><circle cx="897.234" cy="182.234" r="2"/><circle cx="917.234" cy="182.234" r="2"/><circle cx="937.234" cy="182.234" r="2"/><circle cx="957.234" cy="182.234" r="2"/><circle cx="977.234" cy="182.234" r="2"/><circle cx="897.234" cy="202.234" r="2"/><circle cx="917.234" cy="202.234" r="2"/><circle cx="937.234" cy="202.234" r="2"/><circle cx="957.234" cy="202.234" r="2"/><circle cx="977.234" cy="202.234" r="2"/><circle cx="897.234" cy="222.234" r="2"/><circle cx="917.234" cy="222.234" r="2"/><circle cx="937.234" cy="222.234" r="2"/><circle cx="957.234" cy="222.234" r="2"/><circle cx="977.234" cy="222.234" r="2"/><circle cx="897.234" cy="242.234" r="2"/><circle cx="917.234" cy="242.234" r="2"/><circle cx="937.234" cy="242.234" r="2"/><circle cx="957.234" cy="242.234" r="2"/><circle cx="977.234" cy="242.234" r="2"/><circle cx="897.234" cy="262.234" r="2"/><circle cx="917.234" cy="262.234" r="2"/><circle cx="937.234" cy="262.234" r="2"/><circle cx="957.234" cy="262.234" r="2"/><circle cx="977.234" cy="262.234" r="2"/><circle cx="897.234" cy="282.234" r="2"/><circle cx="917.234" cy="282.234" r="2"/><circle cx="937.234" cy="282.234" r="2"/><circle cx="957.234" cy="282.234" r="2"/><circle cx="977.234" cy="282.234" r="2"/><circle cx="897.234" cy="302.234" r="2"/><circle cx="917.234" cy="302.234" r="2"/><circle cx="937.234" cy="302.234" r="2"/><circle cx="957.234" cy="302.234" r="2"/><circle cx="977.234" cy="302.234" r="2"/><circle cx="897.234" cy="322.234" r="2"/><circle cx="917.234" cy="322.234" r="2"/><circle cx="937.234" cy="322.234" r="2"/><circle cx="957.234" cy="322.234" r="2"/><circle cx="977.234" cy="322.234" r="2"/><circle cx="897.234" cy="342.234" r="2"/><circle cx="917.234" cy="342.234" r="2"/><circle cx="937.234" cy="342.234" r="2"/><circle cx="957.234" cy="342.234" r="2"/><circle cx="977.234" cy="342.234" r="2"/><circle cx="897.234" cy="362.234" r="2"/><circle cx="917.234" cy="362.234" r="2"/><circle cx="937.234" cy="362.234" r="2"/><circle cx="957.234" cy="362.234" r="2"/><circle cx="977.234" cy="362.234" r="2"/><circle cx="897.234" cy="382.234" r="2"/><circle cx="917.234" cy="382.234" r="2"/><circle cx="937.234" cy="382.234" r="2"/><circle cx="957.234" cy="382.234" r="2"/><circle cx="977.234" cy="382.234" r="2"/><circle cx="897.234" cy="402.234" r="2"/><circle cx="917.234" cy="402.234" r="2"/><circle cx="937.234" cy="402.234" r="2"/><circle cx="957.234" cy="402.234" r="2"/><circle cx="977.234" cy="402.234" r="2"/><circle cx="897.234" cy="422.234" r="2"/><circle cx="917.234" cy="422.234" r="2"/><circle cx="937.234" cy="422.234" r="2"/><circle cx="957.234" cy="422.234" r="2"/><circle cx="977.234" cy="422.234" r="2"/><circle cx="897.234" cy="442.234" r="2"/><circle cx="917.234" cy="442.234" r="2"/><circle cx="937.234" cy="442.234" r="2"/><circle cx="957.234" cy="442.234" r="2"/><circle cx="977.234" cy="442.234" r="2"/><circle cx="897.234" cy="462.234" r="2"/><circle cx="917.234" cy="462.234" r="2"/><circle cx="937.234" cy="462.234" r="2"/><circle cx="957.234" cy="462.234" r="2"/><circle cx="977.234" cy="462.234" r="2"/><circle cx="897.234" cy="482.234" r="2"/><circle cx="917.234" cy="482.234" r="2"/><circle cx="937.234" cy="482.234" r="2"/><circle cx="957.234" cy="482.234" r="2"/><circle cx="977.234" cy="482.234" r="2"/><circle cx="897.234" cy="502.234" r="2"/><circle cx="917.234" cy="502.234" r="2"/><circle cx="937.234" cy="502.234" r="2"/><circle cx="957.234" cy="502.234" r="2"/><circle cx="977.234" cy="502.234" r="2"/><circle cx="897.234" cy="522.234" r="2"/><circle cx="917.234" cy="522.234" r="2"/><circle cx="937.234" cy="522.234" r="2"/><circle cx="957.234" cy="522.234" r="2"/><circle cx="977.234" cy="522.234" r="2"/><circle cx="897.234" cy="542.234" r="2"/><circle cx="917.234" cy="542.234" r="2"/><circle cx="937.234" cy="542.234" r="2"/><circle cx="957.234" cy="542.234" r="2"/><circle cx="977.234" cy="542.234" r="2"/><circle cx="897.234" cy="562.234" r="2"/><circle cx="917.234" cy="562.234" r="2"/><circle cx="937.234" cy="562.234" r="2"/><circle cx="957.234" cy="562.234" r="2"/><circle cx="977.234" cy="562.234" r="2"/><circle cx="897.234" cy="582.234" r="2"/><circle cx="917.234" cy="582.234" r="2"/><circle cx="937.234" cy="582.234" r="2"/><circle cx="957.234" cy="582.234" r="2"/><circle cx="977.234" cy="582.234" r="2"/><circle cx="897.234" cy="602.234" r="2"/><circle cx="917.234" cy="602.234" r="2"/><circle cx="937.234" cy="602.234" r="2"/><circle cx="957.234" cy="602.234" r="2"/><circle cx="977.234" cy="602.234" r="2"/><circle cx="897.234" cy="622.234" r="2"/><circle cx="917.234" cy="622.234" r="2"/><circle cx="937.234" cy="622.234" r="2"/><circle cx="957.234" cy="622.234" r="2"/><circle cx="977.234" cy="622.234" r="2"/><circle cx="897.234" cy="642.234" r="2"/><circle cx="917.234" cy="642.234" r="2"/><circle cx="937.234" cy="642.234" r="2"/><circle cx="957.234" cy="642.234" r="2"/><circle cx="977.234" cy="642.234" r="2"/><circle cx="897.234" cy="662.234" r="2"/><circle cx="917.234" cy="662.234" r="2"/><circle cx="937.234" cy="662.234" r="2"/><circle cx="957.234" cy="662.234" r="2"/><circle cx="977.234" cy="662.234" r="2"/><circle cx="897.234" cy="682.234" r="2"/><circle cx="917.234" cy="682.234" r="2"/><circle cx="937.234" cy="682.234" r="2"/><circle cx="957.234" cy="682.234" r="2"/><circle cx="977.234" cy="682.234" r="2"/><circle cx="897.234" cy="702.234" r="2"/><circle cx="917.234" cy="702.234" r="2"/><circle cx="937.234" cy="702.234" r="2"/><circle cx="957.234" cy="702.234" r="2"/><circle cx="977.234" cy="702.234" r="2"/><circle cx="897.234" cy="722.234" r="2"/><circle cx="917.234" cy="722.234" r="2"/><circle cx="937.234" cy="722.234" r="2"/><circle cx="957.234" cy="722.234" r="2"/><circle cx="977.234" cy="722.234" r="2"/></g><mask id="mask1_116_12875" width="668" height="691" x="-566" y="82" maskUnits="userSpaceOnUse" style="mask-type:alpha"><path fill="url(#paint1_linear_116_12875)" d="M-566 82h668v691h-668z"/></mask><g fill="#000" mask="url(#mask1_116_12875)" opacity=".25"><circle cx="14.234" cy="110.234" r="2"/><circle cx="34.234" cy="110.234" r="2"/><circle cx="54.234" cy="110.234" r="2"/><circle cx="74.234" cy="110.234" r="2"/><circle cx="94.234" cy="110.234" r="2"/><circle cx="14.234" cy="130.234" r="2"/><circle cx="34.234" cy="130.234" r="2"/><circle cx="54.234" cy="130.234" r="2"/><circle cx="74.234" cy="130.234" r="2"/><circle cx="94.234" cy="130.234" r="2"/><circle cx="14.234" cy="150.234" r="2"/><circle cx="34.234" cy="150.234" r="2"/><circle cx="54.234" cy="150.234" r="2"/><circle cx="74.234" cy="150.234" r="2"/><circle cx="94.234" cy="150.234" r="2"/><circle cx="14.234" cy="170.234" r="2"/><circle cx="34.234" cy="170.234" r="2"/><circle cx="54.234" cy="170.234" r="2"/><circle cx="74.234" cy="170.234" r="2"/><circle cx="94.234" cy="170.234" r="2"/><circle cx="14.234" cy="190.234" r="2"/><circle cx="34.234" cy="190.234" r="2"/><circle cx="54.234" cy="190.234" r="2"/><circle cx="74.234" cy="190.234" r="2"/><circle cx="94.234" cy="190.234" r="2"/><circle cx="14.234" cy="210.234" r="2"/><circle cx="34.234" cy="210.234" r="2"/><circle cx="54.234" cy="210.234" r="2"/><circle cx="74.234" cy="210.234" r="2"/><circle cx="94.234" cy="210.234" r="2"/><circle cx="14.234" cy="230.234" r="2"/><circle cx="34.234" cy="230.234" r="2"/><circle cx="54.234" cy="230.234" r="2"/><circle cx="74.234" cy="230.234" r="2"/><circle cx="94.234" cy="230.234" r="2"/><circle cx="14.234" cy="250.234" r="2"/><circle cx="34.234" cy="250.234" r="2"/><circle cx="54.234" cy="250.234" r="2"/><circle cx="74.234" cy="250.234" r="2"/><circle cx="94.234" cy="250.234" r="2"/><circle cx="14.234" cy="270.234" r="2"/><circle cx="34.234" cy="270.234" r="2"/><circle cx="54.234" cy="270.234" r="2"/><circle cx="74.234" cy="270.234" r="2"/><circle cx="94.234" cy="270.234" r="2"/><circle cx="14.234" cy="290.234" r="2"/><circle cx="34.234" cy="290.234" r="2"/><circle cx="54.234" cy="290.234" r="2"/><circle cx="74.234" cy="290.234" r="2"/><circle cx="94.234" cy="290.234" r="2"/><circle cx="14.234" cy="310.234" r="2"/><circle cx="34.234" cy="310.234" r="2"/><circle cx="54.234" cy="310.234" r="2"/><circle cx="74.234" cy="310.234" r="2"/><circle cx="94.234" cy="310.234" r="2"/><circle cx="14.234" cy="330.234" r="2"/><circle cx="34.234" cy="330.234" r="2"/><circle cx="54.234" cy="330.234" r="2"/><circle cx="74.234" cy="330.234" r="2"/><circle cx="94.234" cy="330.234" r="2"/><circle cx="14.234" cy="350.234" r="2"/><circle cx="34.234" cy="350.234" r="2"/><circle cx="54.234" cy="350.234" r="2"/><circle cx="74.234" cy="350.234" r="2"/><circle cx="94.234" cy="350.234" r="2"/><circle cx="14.234" cy="370.234" r="2"/><circle cx="34.234" cy="370.234" r="2"/><circle cx="54.234" cy="370.234" r="2"/><circle cx="74.234" cy="370.234" r="2"/><circle cx="94.234" cy="370.234" r="2"/><circle cx="14.234" cy="390.234" r="2"/><circle cx="34.234" cy="390.234" r="2"/><circle cx="54.234" cy="390.234" r="2"/><circle cx="74.234" cy="390.234" r="2"/><circle cx="94.234" cy="390.234" r="2"/><circle cx="14.234" cy="410.234" r="2"/><circle cx="34.234" cy="410.234" r="2"/><circle cx="54.234" cy="410.234" r="2"/><circle cx="74.234" cy="410.234" r="2"/><circle cx="94.234" cy="410.234" r="2"/><circle cx="14.234" cy="430.234" r="2"/><circle cx="34.234" cy="430.234" r="2"/><circle cx="54.234" cy="430.234" r="2"/><circle cx="74.234" cy="430.234" r="2"/><circle cx="94.234" cy="430.234" r="2"/><circle cx="14.234" cy="450.234" r="2"/><circle cx="34.234" cy="450.234" r="2"/><circle cx="54.234" cy="450.234" r="2"/><circle cx="74.234" cy="450.234" r="2"/><circle cx="94.234" cy="450.234" r="2"/><circle cx="14.234" cy="470.234" r="2"/><circle cx="34.234" cy="470.234" r="2"/><circle cx="54.234" cy="470.234" r="2"/><circle cx="74.234" cy="470.234" r="2"/><circle cx="94.234" cy="470.234" r="2"/><circle cx="14.234" cy="490.234" r="2"/><circle cx="34.234" cy="490.234" r="2"/><circle cx="54.234" cy="490.234" r="2"/><circle cx="74.234" cy="490.234" r="2"/><circle cx="94.234" cy="490.234" r="2"/><circle cx="14.234" cy="510.234" r="2"/><circle cx="34.234" cy="510.234" r="2"/><circle cx="54.234" cy="510.234" r="2"/><circle cx="74.234" cy="510.234" r="2"/><circle cx="94.234" cy="510.234" r="2"/><circle cx="14.234" cy="530.234" r="2"/><circle cx="34.234" cy="530.234" r="2"/><circle cx="54.234" cy="530.234" r="2"/><circle cx="74.234" cy="530.234" r="2"/><circle cx="94.234" cy="530.234" r="2"/><circle cx="14.234" cy="550.234" r="2"/><circle cx="34.234" cy="550.234" r="2"/><circle cx="54.234" cy="550.234" r="2"/><circle cx="74.234" cy="550.234" r="2"/><circle cx="94.234" cy="550.234" r="2"/><circle cx="14.234" cy="570.234" r="2"/><circle cx="34.234" cy="570.234" r="2"/><circle cx="54.234" cy="570.234" r="2"/><circle cx="74.234" cy="570.234" r="2"/><circle cx="94.234" cy="570.234" r="2"/><circle cx="14.234" cy="590.234" r="2"/><circle cx="34.234" cy="590.234" r="2"/><circle cx="54.234" cy="590.234" r="2"/><circle cx="74.234" cy="590.234" r="2"/><circle cx="94.234" cy="590.234" r="2"/><circle cx="14.234" cy="610.234" r="2"/><circle cx="34.234" cy="610.234" r="2"/><circle cx="54.234" cy="610.234" r="2"/><circle cx="74.234" cy="610.234" r="2"/><circle cx="94.234" cy="610.234" r="2"/><circle cx="14.234" cy="630.234" r="2"/><circle cx="34.234" cy="630.234" r="2"/><circle cx="54.234" cy="630.234" r="2"/><circle cx="74.234" cy="630.234" r="2"/><circle cx="94.234" cy="630.234" r="2"/><circle cx="14.234" cy="650.234" r="2"/><circle cx="34.234" cy="650.234" r="2"/><circle cx="54.234" cy="650.234" r="2"/><circle cx="74.234" cy="650.234" r="2"/><circle cx="94.234" cy="650.234" r="2"/><circle cx="14.234" cy="670.234" r="2"/><circle cx="34.234" cy="670.234" r="2"/><circle cx="54.234" cy="670.234" r="2"/><circle cx="74.234" cy="670.234" r="2"/><circle cx="94.234" cy="670.234" r="2"/><circle cx="14.234" cy="690.234" r="2"/><circle cx="34.234" cy="690.234" r="2"/><circle cx="54.234" cy="690.234" r="2"/><circle cx="74.234" cy="690.234" r="2"/><circle cx="94.234" cy="690.234" r="2"/><circle cx="14.234" cy="710.234" r="2"/><circle cx="34.234" cy="710.234" r="2"/><circle cx="54.234" cy="710.234" r="2"/><circle cx="74.234" cy="710.234" r="2"/><circle cx="94.234" cy="710.234" r="2"/><circle cx="14.234" cy="730.234" r="2"/><circle cx="34.234" cy="730.234" r="2"/><circle cx="54.234" cy="730.234" r="2"/><circle cx="74.234" cy="730.234" r="2"/><circle cx="94.234" cy="730.234" r="2"/></g><mask id="mask2_116_12875" width="736" height="577" x="145" y="302" maskUnits="userSpaceOnUse" style="mask-type:alpha"><path fill="url(#paint2_linear_116_12875)" d="M145 302h736v577H145z"/></mask><g mask="url(#mask2_116_12875)"><mask id="mask3_116_12875" width="736" height="577" x="145" y="302" maskUnits="userSpaceOnUse" style="mask-type:alpha"><path fill="url(#paint3_linear_116_12875)" d="M145 302h736v577H145z"/></mask><g stroke="#7611F7" mask="url(#mask3_116_12875)" opacity=".25" style="mix-blend-mode:multiply"><path d="M102 362.5h797m-279 639v-797m-518 190h797m-247 607v-797m-550 222h797m-727 575v-797m512 797v-797m-582 254h797m-695 543v-797m512 797v-797m-614 286h797m-663 511v-797m512 797v-797m-646 318h797m-631 479v-797m512 797v-797m-678 350h797m-599 447v-797m512 797v-797m-710 382h797m-567 415v-797m512 797v-797m-742 414h797m-535 383v-797m512 797v-797m-774 446h797m-503 351v-797m-294 478h797m-471 319v-797m-326 510h797m-439 287v-797m-358 542h797m-407 255v-797m-390 574h797m-375 223v-797m-422 606h797m-343 191v-797m-454 638h797m-311 159v-797"/></g></g></g><defs><linearGradient id="paint0_linear_116_12875" x1="996.519" x2="1031" y1="207.593" y2="641.5" gradientUnits="userSpaceOnUse"><stop stop-opacity="0"/><stop offset=".321"/><stop offset=".442" stop-color="#C8C8C8" stop-opacity="0"/><stop offset=".588" stop-color="#9B9B9B" stop-opacity=".42"/><stop offset=".684"/><stop offset=".933" stop-opacity="0"/></linearGradient><linearGradient id="paint1_linear_116_12875" x1="-434.481" x2="-19.48" y1="215.593" y2="701.593" gradientUnits="userSpaceOnUse"><stop stop-opacity="0"/><stop offset=".321"/><stop offset=".442" stop-color="#C8C8C8" stop-opacity="0"/><stop offset=".723" stop-color="#9B9B9B" stop-opacity=".42"/><stop offset=".871"/><stop offset="1" stop-opacity="0"/></linearGradient><linearGradient id="paint2_linear_116_12875" x1="613" x2="395.5" y1="365.5" y2="866.5" gradientUnits="userSpaceOnUse"><stop stop-opacity="0"/><stop offset=".176" stop-opacity=".22"/><stop offset=".246" stop-color="#3B3B3B"/><stop offset=".376" stop-opacity=".3"/><stop offset=".446" stop-color="#3B3B3B"/><stop offset=".844" stop-opacity=".22"/><stop offset="1" stop-opacity="0"/></linearGradient><linearGradient id="paint3_linear_116_12875" x1="174.5" x2="773.5" y1="366" y2="760" gradientUnits="userSpaceOnUse"><stop stop-opacity="0"/><stop offset=".176" stop-opacity=".22"/><stop offset=".246" stop-color="#3B3B3B"/><stop offset=".34" stop-opacity=".3"/><stop offset=".446" stop-color="#3B3B3B"/><stop offset=".653" stop-opacity=".22"/><stop offset="1" stop-opacity="0"/></linearGradient><clipPath id="clip0_116_12875"><path fill="#fff" d="M0 0h990v920H0z"/></clipPath></defs></svg>