<?xml version="1.0" encoding="UTF-8"?><svg id="a" xmlns="http://www.w3.org/2000/svg" width="161.19" height="26.71" viewBox="0 0 161.19 26.71"><path d="m28.37,12.39C23.2,9.2,19.87-.33,12.75,2.15c-2.74,1.28-4.17,4.19-6.44,6.14-3.54,3.14-8.82,7.4-4.95,12.39,3.8,5.27,9.04.15,13.78.12,3.62-.38,6.42,3.01,10.01,2.22,4.81-.8,6.79-7.31,3.22-10.64Z" fill="#2e2b41"/><path d="m42.58,20.74c-2.53,0-4.62-.84-6.26-2.52-1.65-1.68-2.47-3.75-2.47-6.22s.82-4.56,2.47-6.23c1.65-1.67,3.74-2.51,6.26-2.51,1.52,0,2.92.36,4.21,1.07,1.29.71,2.29,1.68,3.01,2.89l-2.86,1.66c-.42-.75-1.01-1.34-1.78-1.76-.77-.42-1.63-.64-2.59-.64-1.63,0-2.95.51-3.95,1.54-1,1.02-1.5,2.35-1.5,3.98s.5,2.94,1.5,3.96c1,1.02,2.32,1.54,3.95,1.54.96,0,1.83-.21,2.6-.64.78-.42,1.36-1,1.76-1.74l2.86,1.66c-.72,1.22-1.72,2.18-3,2.89-1.28.71-2.69,1.07-4.22,1.07Z" fill="#2e2b41"/><path d="m62,18.9c-1.23,1.22-2.73,1.84-4.51,1.84s-3.28-.61-4.5-1.84-1.84-2.72-1.84-4.5.61-3.28,1.84-4.5,2.72-1.84,4.5-1.84,3.28.61,4.51,1.84c1.23,1.22,1.85,2.72,1.85,4.5s-.62,3.28-1.85,4.5Zm-6.83-2.12c.62.62,1.39.94,2.32.94s1.71-.31,2.33-.94c.62-.62.94-1.42.94-2.38s-.31-1.75-.94-2.38c-.62-.62-1.4-.94-2.33-.94s-1.7.31-2.32.94c-.62.62-.92,1.42-.92,2.38s.31,1.75.92,2.38Z" fill="#2e2b41"/><path d="m75.13,3.6h3.1v16.8h-3.1v-1.42c-.91,1.17-2.21,1.75-3.89,1.75s-3-.61-4.14-1.84c-1.14-1.22-1.72-2.72-1.72-4.5s.57-3.28,1.72-4.5c1.14-1.22,2.52-1.84,4.14-1.84s2.98.58,3.89,1.75V3.6Zm-5.7,13.24c.63.63,1.43.95,2.39.95s1.75-.32,2.38-.95c.62-.63.94-1.44.94-2.44s-.31-1.8-.94-2.44c-.62-.63-1.42-.95-2.38-.95s-1.76.32-2.39.95c-.63.63-.95,1.44-.95,2.44s.32,1.8.95,2.44Z" fill="#2e2b41"/><path d="m83.67,15.67c.42,1.5,1.54,2.26,3.38,2.26,1.18,0,2.08-.4,2.69-1.2l2.5,1.44c-1.18,1.71-2.93,2.57-5.23,2.57-1.98,0-3.58-.6-4.78-1.8s-1.8-2.71-1.8-4.54.59-3.32,1.78-4.52c1.18-1.21,2.7-1.81,4.56-1.81,1.76,0,3.21.61,4.36,1.82,1.14,1.22,1.72,2.72,1.72,4.51,0,.4-.04.82-.12,1.27h-9.05Zm-.05-2.4h6.12c-.18-.82-.54-1.42-1.09-1.82-.55-.4-1.18-.6-1.88-.6-.83,0-1.52.21-2.06.64-.54.42-.9,1.02-1.08,1.79Z" fill="#2e2b41"/><path d="m104.02,8.4h3.1v12h-3.1v-1.42c-.93,1.17-2.23,1.75-3.91,1.75s-2.97-.61-4.12-1.84-1.72-2.72-1.72-4.5.57-3.28,1.72-4.5,2.52-1.84,4.12-1.84c1.68,0,2.98.58,3.91,1.75v-1.42Zm-5.71,8.44c.62.63,1.42.95,2.38.95s1.76-.32,2.39-.95c.63-.63.95-1.44.95-2.44s-.32-1.8-.95-2.44c-.63-.63-1.43-.95-2.39-.95s-1.75.32-2.38.95c-.62.63-.94,1.44-.94,2.44s.31,1.8.94,2.44Z" fill="#2e2b41"/><path d="m113.68,17.5h5.33v2.9h-9.46v-2.06l5.06-7.04h-4.82v-2.9h8.99v2.06l-5.09,7.04Z" fill="#2e2b41"/><path d="m130.78,18.9c-1.23,1.22-2.74,1.84-4.51,1.84s-3.28-.61-4.5-1.84-1.84-2.72-1.84-4.5.61-3.28,1.84-4.5,2.72-1.84,4.5-1.84,3.28.61,4.51,1.84c1.23,1.22,1.85,2.72,1.85,4.5s-.62,3.28-1.85,4.5Zm-6.83-2.12c.62.62,1.39.94,2.32.94s1.7-.31,2.33-.94.94-1.42.94-2.38-.31-1.75-.94-2.38-1.4-.94-2.33-.94-1.7.31-2.32.94c-.62.62-.92,1.42-.92,2.38s.31,1.75.92,2.38Z" fill="#2e2b41"/><path d="m141.49,8.06c1.31,0,2.4.44,3.25,1.32.86.88,1.28,2.1,1.28,3.65v7.37h-3.1v-6.98c0-.8-.22-1.41-.65-1.84s-1.01-.64-1.73-.64c-.8,0-1.44.25-1.92.74-.48.5-.72,1.24-.72,2.23v6.48h-3.1v-12h3.1v1.34c.75-1.12,1.94-1.68,3.58-1.68Z" fill="#2e2b41"/><path d="m151.28,15.67c.42,1.5,1.54,2.26,3.38,2.26,1.18,0,2.08-.4,2.69-1.2l2.5,1.44c-1.18,1.71-2.93,2.57-5.23,2.57-1.98,0-3.58-.6-4.78-1.8s-1.8-2.71-1.8-4.54.59-3.32,1.78-4.52c1.18-1.21,2.7-1.81,4.56-1.81,1.76,0,3.21.61,4.36,1.82,1.14,1.22,1.72,2.72,1.72,4.51,0,.4-.04.82-.12,1.27h-9.05Zm-.05-2.4h6.12c-.18-.82-.54-1.42-1.09-1.82-.55-.4-1.18-.6-1.88-.6-.83,0-1.52.21-2.06.64-.54.42-.9,1.02-1.08,1.79Z" fill="#2e2b41"/></svg>